# xmcd
#
# Track frame offsets:
#	150
#	24180
#	45542
#	69615
#	90422
#	113512
#	129157
#	148672
#	173677
#	193287
#
# Disc length: 2873 seconds
#
# Revision: 1
# Processed by: cddbd v1.5.1PL0 Copyright (c) Steve Scherf et al.
# Submitted via: CDex 1.50Beta5
#
DISCID=7b0b370a
DTITLE=VOICE - Blue
DYEAR=1994
DGENRE=
TTITLE0=碧空
TTITLE1=終わらないドラマ
TTITLE2=STAY〜あなたの声が聞きたい
TTITLE3=せせらぎのない河
TTITLE4=Hole in the wall
TTITLE5=そよ風の中で見た夏
TTITLE6=海鳥たちの記念日
TTITLE7=ギターが泣いてる
TTITLE8=さよならからはじまるFilm
TTITLE9=STATION
EXTD=
EXTT0=
EXTT1=
EXTT2=
EXTT3=
EXTT4=
EXTT5=
EXTT6=
EXTT7=
EXTT8=
EXTT9=
PLAYORDER=
